# xmcd
#
# Track frame offsets: 
#        150
#        26722
#        40645
#        52268
#        75456
#        104672
#        133416
#        149043
#        160206
#        185323
#        201508
#        228299
#        249508
#        261787
#        286301
#        305415
#
# Disc length: 4440 seconds
#
# Revision: 1
# Processed by: cddbd v1.5.2PL0 Copyright (c) Steve Scherf et al.
# Submitted via: ExactAudioCopy v1.3
#
DISCID=ef115610
DTITLE=Cut Up Boys - Mash Up Mix 90's Disc 1
DYEAR=2010
DGENRE=Dance
TTITLE0=Frankie Knuckles Feat. Jamie Principle - Axford - Solar Stone 
TTITLE0=/ Bizarre Inc - Whigfield Vs Ultra DJs - Kws - Your Love-We Go
TTITLE0=tta Love (Acappella)-Seven Cities (Stones Atlantis Mix)-I'm Go
TTITLE0=nna Get You-Saturday Night (Acappella)-Please Don't Go (Sunshi
TTITLE0=ne Mix)
TTITLE1=The Farm - Sandy B - Groovy Train-Make The World Go Round (Ins
TTITLE1=trumental Mix)
TTITLE2=Alex Party - Fatboy Slim - Ann Lee - Saturday Night Party-Prai
TTITLE2=se You (Acappella)-2 Times (Acappella)
TTITLE3=Loveland Feat. The Voice Of Rachel McFarlene - Sandy B - Sybil
TTITLE3=I Need Somebody (Loveland's Full On Vocal 12" Mix)-Make The
TTITLE3=World Go Round (Acappella)-When I'm Good And Ready (The Woman
TTITLE3='s Prerogative Mix)
TTITLE4=Pizzaman - Kristine Blond - De'Lacy - Urban Cookie Collective 
TTITLE4=/ Afrika Bambaataa - Happiness-Love Shy (Acappella)-Hideaway (
TTITLE4=Dubfire Needs To Score)-The Key, The Secret-Just Get Up And Da
TTITLE4=nce (Acappella)
TTITLE5=Corona - Capella - Soulsearch - The Rhythm Of The Night-U Got 
TTITLE5=2 Let The Music-Gypsy Woman (Acappella)
TTITLE6=2 Bad Mice - Reanimator Feat. Big Daddi and Vanilla Ice - Bombsc
TTITLE6=are-Ice Ice Baby (Salsa) (Acappella)
TTITLE7=Robin S. - Happy Clappers - Show Me Love (Stonebridge Club Mix
TTITLE7=)-I Believe (Acappella)
TTITLE8=Moloko - Robin S. - Joe Smooth - Sing It Back (Boris Musical M
TTITLE8=ix)-Show Me Love (Acappella)-Promised Land
TTITLE9=Aqua Sky - Loveland Feat. Rachel McFarlene - Don't Stop Movin'
TTITLE9=(Acappella)-Let The Music (Lift You Up)
TTITLE10=Kenny "Dope" Presents The Bucketheads - SNAP! - Mr. Fingers /
TTITLE10=Moloko - The Bomb! (These Sounds Fall Into My Mind)-Rhythm I
TTITLE10=s A Dancer (Acappella)-Can You Feel It (Instrumental)-The Tim
TTITLE10=e Is Now (Acappella)
TTITLE11=Ken Doh - Kings Of Tomorrow - Nakasaki (I Need A Lover Tonigh
TTITLE11=t)-Finally (Acappella)
TTITLE12=ATB - Sybil - 9pm (Till I Come)-My Love Is Guaranteed (Acappe
TTITLE12=lla)
TTITLE13=Krush - 2 Unlimited - B.U.Z.Z. - DSK - Walking On Sunshine (C
TTITLE13=lassic Edit) - No Limit (Acappella)-Breaker (Uptown Mix)-What
TTITLE13=Would We Do (Acappella)
TTITLE14=Fatboy Slim - SNAP! - Rozalla - Right Here Right Now (Acappel
TTITLE14=la)-Rhythm Is A Dancer-Everybody's Free (Acappella)
TTITLE15=Kadoc - Todd Terry - Underworld - The Nighttrain-Weekend (Aca
TTITLE15=ppella)-Mmm Skyscraper...I Love You
EXTD=
EXTT0=
EXTT1=
EXTT2=
EXTT3=
EXTT4=
EXTT5=
EXTT6=
EXTT7=
EXTT8=
EXTT9=
EXTT10=
EXTT11=
EXTT12=
EXTT13=
EXTT14=
EXTT15=
PLAYORDER=
